Coordinates
version=1
nRows=24
nColumns=24
inDegrees=yes

Units are S.I. units (second, meters, Newtons, ...)
Angles are in degrees.

endheader
time	pelvis_tilt	pelvis_list	pelvis_rotation	pelvis_tx	pelvis_ty	pelvis_tz	hip_flexion_r	hip_adduction_r	hip_rotation_r	knee_angle_r	ankle_angle_r	subtalar_angle_r	mtp_angle_r	hip_flexion_l	hip_adduction_l	hip_rotation_l	knee_angle_l	ankle_angle_l	subtalar_angle_l	mtp_angle_l	lumbar_extension	lumbar_bending	lumbar_rotation
      3.64500000	     13.17726950	     -0.33245450	      6.27635488	     -0.88683605	      0.72889172	     -0.24771296	    -26.74821823	      6.00344530	     -6.06403498	    -16.98423665	     36.13277320	     20.21514319	      0.00000000	     17.37753832	      2.55856948	      6.31153463	    -18.27392159	     17.25283245	      6.75931435	      0.00000000	    -36.89118855	      1.43710144	      3.04703213
      3.65000000	     13.18758833	     -0.09115463	      5.98118820	     -0.87911662	      0.72857701	     -0.24821455	    -26.63091788	      5.48255921	     -5.98322784	    -18.62970514	     35.72722228	     20.58289811	      0.00000000	     17.35803674	      2.92307283	      6.27552407	    -19.24529691	     17.10294898	      6.25125926	      0.00000000	    -36.79190190	      1.04523521	      3.13234638
      3.65500000	     13.18055318	      0.17960798	      5.73699250	     -0.87141716	      0.72833945	     -0.24881853	    -26.38564981	      4.91557288	     -6.02560278	    -20.48015493	     35.24926602	     21.20621874	      0.00000000	     17.32150607	      3.36002016	      6.40239629	    -20.23709413	     16.85496234	      5.47923097	      0.00000000	    -36.67983445	      0.66787902	      3.07561094
      3.66000000	     13.20887579	      0.49535985	      5.58508273	     -0.86367553	      0.72821189	     -0.24954106	    -26.13465328	      4.32012601	     -6.26320573	    -22.39550724	     34.56364116	     21.86971383	      0.00000000	     17.24318182	      3.88483631	      6.67816454	    -21.32248105	     16.60858987	      4.62568101	      0.00000000	    -36.60160458	      0.29426216	      2.96604816
      3.66500000	     13.21088219	      0.80987709	      5.38320391	     -0.85595866	      0.72820309	     -0.25017994	    -25.75201888	      3.70559362	     -6.35493214	    -24.46033910	     33.66881481	     22.37147680	      0.00000000	     17.16613716	      4.38221045	      6.84310270	    -22.40575990	     16.30663298	      3.85569977	      0.00000000	    -36.50660443	     -0.11268896	      2.88566114
      3.67000000	     13.20135633	      1.13867639	      5.23117257	     -0.84823031	      0.72829615	     -0.25084994	    -25.28819950	      3.08624095	     -6.48117375	    -26.61269978	     32.48102411	     22.87614721	      0.00000000	     17.06751154	      4.90809537	      7.06000380	    -23.46225132	     16.00048057	      3.08243505	      0.00000000	    -36.39728728	     -0.50628532	      2.69009110
      3.67500000	     13.18775915	      1.49283044	      5.10650337	     -0.84052540	      0.72846333	     -0.25162529	    -24.74278918	      2.41231663	     -6.73508214	    -28.85841318	     31.15806312	     23.37346700	      0.00000000	     16.94566975	      5.49112824	      7.37902689	    -24.51345708	     15.72713982	      2.23471928	      0.00000000	    -36.28902685	     -0.89855431	      2.52164203
      3.68000000	     13.17351923	      1.85880309	      5.00336506	     -0.83283325	      0.72874145	     -0.25238912	    -24.12825604	      1.72946095	     -6.97718377	    -31.16626116	     29.56904547	     23.77012321	      0.00000000	     16.78042232	      6.08086787	      7.69102234	    -25.49470955	     15.49561400	      1.46710590	      0.00000000	    -36.18666632	     -1.29053884	      2.29116732
      3.68500000	     13.14707638	      2.22995997	      4.91738937	     -0.82517629	      0.72911398	     -0.25316640	    -23.42834644	      1.03343689	     -7.22454007	    -33.52169215	     27.77283232	     24.04944780	      0.00000000	     16.58209172	      6.67363855	      7.99973897	    -26.39538077	     15.30333814	      0.75824129	      0.00000000	    -36.07735817	     -1.67191476	      2.01932106
      3.69000000	     13.10961065	      2.61456992	      4.84826810	     -0.81752485	      0.72956035	     -0.25395373	    -22.66265718	      0.31526850	     -7.48922298	    -35.88878688	     25.81622512	     24.19785039	      0.00000000	     16.34452035	      7.28379136	      8.33946778	    -27.21526453	     15.23541243	      0.08345531	      0.00000000	    -35.95771145	     -2.06089260	      1.74365561
      3.69500000	     13.03119877	      2.97849893	      4.86978438	     -0.81004443	      0.73006039	     -0.25468436	    -21.77919291	     -0.34276540	     -7.79623359	    -38.26988767	     23.71499260	     24.09303192	      0.00000000	     16.14427140	      7.83476064	      9.13853605	    -28.10956814	     15.39743983	      0.49433076	      0.00000000	    -35.82871912	     -2.40125393	      1.39678784
      3.70000000	     12.95563652	      3.33733327	      4.80197255	     -0.80248235	      0.73062660	     -0.25543173	    -20.84833228	     -1.04765790	     -7.99981722	    -40.62990122	     21.56207752	     23.79282519	      0.00000000	     15.84889765	      8.38723009	      9.41110712	    -28.72853687	     15.55743511	      0.01901786	      0.00000000	    -35.67965383	     -2.75805482	      1.11343972
      3.70500000	     12.89972940	      3.70848935	      4.76173235	     -0.79497514	      0.73128814	     -0.25617206	    -19.90162255	     -1.76514175	     -8.24958593	    -42.93750119	     19.42548592	     23.29026369	      0.00000000	     15.48169328	      8.93339264	      9.65334337	    -29.24207060	     15.79001907	     -0.33745385	      0.00000000	    -35.56449664	     -3.11156034	      0.81039281
      3.71000000	     12.82312568	      4.07894575	      4.72118189	     -0.78751412	      0.73200184	     -0.25690663	    -18.89283046	     -2.48576133	     -8.46827585	    -45.18292814	     17.38766088	     22.55149117	      0.00000000	     15.08478058	      9.46455495	      9.87246462	    -29.64856129	     16.10552608	     -0.64377758	      0.00000000	    -35.43147077	     -3.45424474	      0.49653675
      3.71500000	     12.77499118	      4.46450133	      4.69730523	     -0.78010764	      0.73282999	     -0.25760058	    -17.89469522	     -3.20976723	     -8.67842613	    -47.32510762	     15.45868500	     21.65607405	      0.00000000	     14.60585220	      9.97783164	     10.03552468	    -29.94368817	     16.45775967	     -0.77262658	      0.00000000	    -35.34243594	     -3.80299278	      0.14451759
      3.72000000	     12.63182859	      4.79821204	      4.65381042	     -0.77277712	      0.73358773	     -0.25826261	    -16.73324729	     -3.88091151	     -8.81111124	    -49.42609661	     13.83070839	     20.34577579	      0.00000000	     14.20026183	     10.43241551	     10.18142319	    -30.16388385	     16.93153204	     -0.99847634	      0.00000000	    -35.14840712	     -4.11384946	     -0.13927192
      3.72500000	     12.50304222	      5.12540665	      4.62804875	     -0.76551171	      0.73444114	     -0.25889590	    -15.56929476	     -4.53061799	     -8.92145817	    -51.40744356	     12.38358014	     18.93313933	      0.00000000	     13.73594229	     10.84274435	     10.26049774	    -30.28156027	     17.42379078	     -1.01121782	      0.00000000	    -34.98297091	     -4.40604819	     -0.44743566
      3.73000000	     12.40237187	      5.46739327	      4.60956277	     -0.75829731	      0.73536748	     -0.25947758	    -14.42646625	     -5.17744512	     -9.03043944	    -53.27333966	     11.26809316	     17.30459780	      0.00000000	     13.20104932	     11.24046783	     10.28691516	    -30.31299632	     17.95681571	     -0.97944248	      0.00000000	    -34.85788773	     -4.70991378	     -0.77973281
      3.73500000	     12.29033949	      5.78280326	      4.59707241	     -0.75114489	      0.73633862	     -0.26002742	    -13.24966801	     -5.78001320	     -9.09816395	    -55.02431183	     10.40792040	     15.54267047	      0.00000000	     12.64089878	     11.58469155	     10.27735539	    -30.25365267	     18.50974803	     -0.86388024	      0.00000000	    -34.72719327	     -4.98216133	     -1.11197593
      3.74000000	     12.16264402	      6.06816446	      4.59026030	     -0.74404990	      0.73735237	     -0.26053257	    -12.03526861	     -6.32742601	     -9.11812653	    -56.65364005	      9.78784360	     13.64145236	      0.00000000	     12.06399917	     11.87288761	     10.23767977	    -30.11306671	     19.06971821	     -0.66109741	      0.00000000	    -34.58450057	     -5.22425597	     -1.43040429
      3.74500000	     12.03981870	      6.34351989	      4.59549172	     -0.73700147	      0.73841652	     -0.26101374	    -10.81727116	     -6.84670169	     -9.12545701	    -58.15550390	      9.40784550	     11.66393439	      0.00000000	     11.44598498	     12.12876995	     10.17046282	    -29.89127236	     19.62563708	     -0.39409968	      0.00000000	    -34.45408392	     -5.44909892	     -1.76460791
      3.75000000	     11.91577167	      6.59637315	      4.61507093	     -0.72999960	      0.73951416	     -0.26146737	     -9.58914638	     -7.32278957	     -9.12208972	    -59.52839300	      9.25440811	      9.62221253	      0.00000000	     10.80196111	     12.34266627	     10.08648923	    -29.60635427	     20.18022295	     -0.06681070	      0.00000000	    -34.32846305	     -5.64751851	     -2.08405596
      3.75500000	     11.80214123	      6.84057849	      4.64304084	     -0.72303097	      0.74065709	     -0.26191109	     -8.37073770	     -7.77371941	     -9.10622655	    -60.76334351	      9.29552769	      7.55089201	      0.00000000	     10.11302996	     12.53231638	      9.99529493	    -29.24692317	     20.70186158	      0.28751867	      0.00000000	    -34.21713016	     -5.82560690	     -2.43399492
      3.76000000	     11.69037806	      7.04197589	      4.68665415	     -0.71613045	      0.74180899	     -0.26232789	     -7.14345339	     -8.15686228	     -9.07840364	    -61.86856679	      9.50949994	      5.46825469	      0.00000000	      9.41784099	     12.66502377	      9.89516432	    -28.86745633	     21.21268916	      0.67801144	      0.00000000	    -34.11651156	     -5.95765240	     -2.75287517
